<svg width="331" height="91" viewBox="0 0 331 91" fill="none" xmlns="http://www.w3.org/2000/svg">
<rect width="331" height="79" fill="#25355B"/>
<path d="M82.7975 39.75C82.7975 47.8125 80.36 53.875 75.485 57.9375C70.6308 61.9792 63.4017 64 53.7975 64H36.2038V58.125H42.5163V22.7812H36.2038V16.9062H54.11C63.7558 16.9062 70.9433 18.7292 75.6725 22.375C80.4225 26.0208 82.7975 31.8125 82.7975 39.75ZM75.0475 40.0625C75.0475 36.0625 74.3392 32.8021 72.9225 30.2812C71.5267 27.7604 69.2975 25.8854 66.235 24.6562C63.1933 23.4062 59.1725 22.7812 54.1725 22.7812H49.6413V58.125H54.11C61.36 58.125 66.6621 56.6771 70.0163 53.7812C73.3704 50.8646 75.0475 46.2917 75.0475 40.0625ZM114.026 22.7812V58.125H119.151V64H101.808V58.125H106.901V22.7812H101.808V16.9062H119.151V22.7812H114.026ZM173.161 22.7812H166.443V16.9062H185.755V22.7812H178.849V64.5H171.536L148.943 24.25V58.125H155.693V64H136.411V58.125H143.13V22.7812H136.411V16.9062H152.474L173.161 53.5V22.7812ZM233.515 22.5938L246.265 58.125H251.515V64H232.952V58.125H239.109L235.452 47.4375H218.359L214.702 58.125H220.671V64H201.984V58.125H207.671L220.359 22.5938H214.702V16.9062H239.171V22.5938H233.515ZM227.077 22.5938H226.859L220.202 41.9062H233.577L227.077 22.5938Z" fill="white"/>
<path d="M310.568 39.0465C310.568 52.327 297.729 62 284.563 62C271.398 62 273.068 52.2805 273.068 39C273.068 25.7195 271.398 15 284.563 15C297.729 15 310.568 25.766 310.568 39.0465Z" fill="#BAE82F"/>
<path d="M283.263 17L305.549 37.0836L298.854 44.5121L283.997 31.1231C279.894 27.4258 279.566 21.1027 283.263 17V17Z" fill="#FFCA4B"/>
<path d="M305.549 37.0836L287.473 57.1407C286.364 58.3715 284.467 58.4701 283.236 57.3609L278.036 52.6747L291.426 37.8176C295.123 33.7149 301.446 33.3863 305.549 37.0836V37.0836Z" fill="#556FAF"/>
</svg>
