<svg width="314" height="86" viewBox="0 0 314 86" fill="none" xmlns="http://www.w3.org/2000/svg">
<path d="M119.147 28.7188C119.147 37.7891 116.405 44.6094 110.921 49.1797C105.46 53.7266 97.3269 56 86.5222 56H66.7292V49.3906H73.8308V9.62891H66.7292V3.01953H86.8737C97.7253 3.01953 105.811 5.07031 111.132 9.17188C116.475 13.2734 119.147 19.7891 119.147 28.7188ZM110.428 29.0703C110.428 24.5703 109.632 20.9023 108.038 18.0664C106.467 15.2305 103.96 13.1211 100.514 11.7383C97.0925 10.332 92.5691 9.62891 86.9441 9.62891H81.8464V49.3906H86.8737C95.03 49.3906 100.995 47.7617 104.768 44.5039C108.542 41.2227 110.428 36.0781 110.428 29.0703ZM154.28 9.62891V49.3906H160.045V56H140.533V49.3906H146.264V9.62891H140.533V3.01953H160.045V9.62891H154.28ZM220.806 9.62891H213.248V3.01953H234.974V9.62891H227.205V56.5625H218.978L193.56 11.2812V49.3906H201.154V56H179.463V49.3906H187.021V9.62891H179.463V3.01953H197.533L220.806 44.1875V9.62891ZM288.704 9.41797L303.048 49.3906H308.954V56H288.072V49.3906H294.997L290.884 37.3672H271.654L267.54 49.3906H274.255V56H253.232V49.3906H259.63L273.904 9.41797H267.54V3.01953H295.068V9.41797H288.704ZM281.462 9.41797H281.216L273.728 31.1445H288.775L281.462 9.41797Z" fill="#25355B"/>
<path d="M50 31.5814C50 45.7096 32.9115 56 15.3895 56C-2.13243 56 0.0911016 45.6601 0.0911016 31.5319C0.0911016 17.4037 -2.13243 6 15.3895 6C32.9115 6 50 17.4532 50 31.5814Z" fill="#BAE82F"/>
<path d="M13.659 8.12766L43.3191 29.4932L34.4093 37.3959L14.4127 22.9914C9.07573 19.1469 8.73831 12.4922 13.659 8.12766V8.12766Z" fill="#FFCA4B"/>
<path d="M43.2705 30.1431L18.7856 51.8606C17.546 52.96 15.4514 53.0662 14.107 52.0978L6.65451 46.7294L24.2682 31.1066C29.3026 26.6412 37.8102 26.2098 43.2705 30.1431V30.1431Z" fill="#556FAF"/>
</svg>
