<svg width="243" height="62" viewBox="0 0 243 62" fill="none" xmlns="http://www.w3.org/2000/svg">
<g filter="url(#filter0_d)">
<path d="M123.147 25.6993C123.147 34.7696 120.405 41.5899 114.921 46.1602C109.46 50.7071 101.327 52.9805 90.5222 52.9805H70.7292V46.3711H77.8308V6.60938H70.7292V0H90.8737C101.725 0 109.811 2.05078 115.132 6.15235C120.475 10.2539 123.147 16.7696 123.147 25.6993ZM114.428 26.0508C114.428 21.5508 113.632 17.8828 112.038 15.0469C110.467 12.211 107.96 10.1016 104.514 8.71877C101.093 7.31247 96.5691 6.60938 90.9441 6.60938H85.8464V46.3711H90.8737C99.03 46.3711 104.995 44.7422 108.768 41.4844C112.542 38.2032 114.428 33.0586 114.428 26.0508ZM158.28 6.60938V46.3711H164.045V52.9805H144.533V46.3711H150.264V6.60938H144.533V0H164.045V6.60938H158.28ZM224.806 6.60938H217.248V0H238.974V6.60938H231.205V53.543H222.978L197.56 8.26167V46.3711H205.154V52.9805H183.463V46.3711H191.021V6.60938H183.463V0H201.533L224.806 41.168V6.60938Z" fill="white"/>
<path d="M54 28.5619C54 42.6901 36.9115 52.9805 19.3895 52.9805C1.86758 52.9805 4.09111 42.6406 4.09111 28.5124C4.09111 14.3842 1.86758 2.98047 19.3895 2.98047C36.9115 2.98047 54 14.4337 54 28.5619Z" fill="#83A2F0"/>
<path d="M17.659 5.10815L47.3191 26.4737L38.4093 34.3764L18.4127 19.9719C13.0757 16.1274 12.7383 9.47269 17.659 5.10815Z" fill="#556FAF"/>
<path d="M47.2705 27.1235L22.7856 48.841C21.546 49.9404 19.4514 50.0466 18.107 49.0782L10.6545 43.7098L28.2682 28.087C33.3026 23.6216 41.8102 23.1902 47.2705 27.1235Z" fill="#FFCA4B"/>
</g>
<defs>
<filter id="filter0_d" x="0" y="0" width="242.974" height="61.543" filterUnits="userSpaceOnUse" color-interpolation-filters="sRGB">
<feFlood flood-opacity="0" result="BackgroundImageFix"/>
<feColorMatrix in="SourceAlpha" type="matrix" values="0 0 0 0 0 0 0 0 0 0 0 0 0 0 0 0 0 0 127 0" result="hardAlpha"/>
<feOffset dy="4"/>
<feGaussianBlur stdDeviation="2"/>
<feComposite in2="hardAlpha" operator="out"/>
<feColorMatrix type="matrix" values="0 0 0 0 0 0 0 0 0 0 0 0 0 0 0 0 0 0 0.25 0"/>
<feBlend mode="normal" in2="BackgroundImageFix" result="effect1_dropShadow"/>
<feBlend mode="normal" in="SourceGraphic" in2="effect1_dropShadow" result="shape"/>
</filter>
</defs>
</svg>
