<svg width="40" height="40" viewBox="0 0 71 71" fill="none" xmlns="http://www.w3.org/2000/svg">
<path d="M44.375 54.7292C36.9496 54.7292 30.53 50.5283 27.335 44.375H41.4167C43.0438 44.375 44.375 43.0438 44.375 41.4167C44.375 39.7896 43.0438 38.4583 41.4167 38.4583H25.3825C25.2346 37.4821 25.1458 36.5058 25.1458 35.5C25.1458 34.4942 25.2346 33.5179 25.3825 32.5417H41.4167C43.0438 32.5417 44.375 31.2104 44.375 29.5833C44.375 27.9562 43.0438 26.625 41.4167 26.625H27.335C30.53 20.4717 36.9792 16.2708 44.375 16.2708C48.0729 16.2708 51.5342 17.3358 54.4925 19.1404C55.9717 20.0575 57.8946 19.9096 59.1371 18.6671C60.8529 16.9513 60.4683 14.1408 58.3975 12.8687C54.315 10.3542 49.4929 8.875 44.375 8.875C32.7783 8.875 22.9567 16.3004 19.2883 26.625H11.8333C10.2062 26.625 8.875 27.9562 8.875 29.5833C8.875 31.2104 10.2062 32.5417 11.8333 32.5417H17.9275C17.8092 33.5179 17.75 34.4942 17.75 35.5C17.75 36.5058 17.8092 37.4821 17.9275 38.4583H11.8333C10.2062 38.4583 8.875 39.7896 8.875 41.4167C8.875 43.0438 10.2062 44.375 11.8333 44.375H19.2883C22.9567 54.6996 32.7783 62.125 44.375 62.125C49.5225 62.125 54.315 60.6754 58.3975 58.1312C60.4387 56.8592 60.8233 54.0192 59.1075 52.3033C57.865 51.0608 55.9421 50.9129 54.4629 51.8596C51.5342 53.6938 48.1025 54.7292 44.375 54.7292Z" fill="black"/>
</svg>
