<svg width="40" height="40" viewBox="0 0 45 45" fill="none" xmlns="http://www.w3.org/2000/svg">
<path d="M16.3124 29.8125L8.9999 22.5L16.3124 15.1875C17.0437 14.4563 17.0437 13.2938 16.3124 12.5625C15.5812 11.8313 14.4187 11.8313 13.6874 12.5625L5.08115 21.1688C4.3499 21.9 4.3499 23.0813 5.08115 23.8125L13.6874 32.4375C14.4187 33.1688 15.5812 33.1688 16.3124 32.4375C17.0437 31.7063 17.0437 30.5438 16.3124 29.8125ZM28.6874 29.8125L35.9999 22.5L28.6874 15.1875C27.9562 14.4563 27.9562 13.2938 28.6874 12.5625C29.4187 11.8313 30.5812 11.8313 31.3124 12.5625L39.9187 21.1688C40.6499 21.9 40.6499 23.0813 39.9187 23.8125L31.3124 32.4375C30.5812 33.1688 29.4187 33.1688 28.6874 32.4375C27.9562 31.7063 27.9562 30.5438 28.6874 29.8125Z" fill="black"/>
</svg>
