<svg width="40" height="40" viewBox="0 0 45 45" fill="none" xmlns="http://www.w3.org/2000/svg">
<path d="M24.6 3.8625L14.2125 14.25C13.5188 14.9438 13.125 15.9 13.125 16.8938V35.625C13.125 37.6875 14.8125 39.375 16.875 39.375H33.75C35.25 39.375 36.6 38.475 37.2 37.1063L43.3125 22.8375C44.8875 19.125 42.1688 15 38.1375 15H27.5437L29.325 6.4125C29.5125 5.475 29.2312 4.51875 28.5562 3.84375C27.45 2.75625 25.6875 2.75625 24.6 3.8625ZM5.625 39.375C7.6875 39.375 9.375 37.6875 9.375 35.625V20.625C9.375 18.5625 7.6875 16.875 5.625 16.875C3.5625 16.875 1.875 18.5625 1.875 20.625V35.625C1.875 37.6875 3.5625 39.375 5.625 39.375Z" fill="black"/>
</svg>
